<svg width="103" height="102" viewBox="0 0 103 102" fill="none" xmlns="http://www.w3.org/2000/svg">
<g filter="url(#filter0_d_101_24)">
<rect x="4.1" y="0.1" width="94.8" height="93.8" rx="18.9" fill="url(#paint0_linear_101_24)" stroke="black" stroke-width="0.2"/>
<path d="M16.7983 54.138C15.9397 54.138 15.1423 53.977 14.4063 53.655C13.6703 53.333 13.0877 52.8117 12.6583 52.091C12.229 51.3703 12.0143 50.412 12.0143 49.216V42.109C12.0143 40.913 12.2367 39.9547 12.6813 39.234C13.126 38.5133 13.7087 37.992 14.4293 37.67C15.1653 37.348 15.9703 37.187 16.8443 37.187C17.8563 37.187 18.715 37.3633 19.4203 37.716C20.1257 38.0687 20.6623 38.5363 21.0303 39.119C21.4137 39.7017 21.6053 40.3457 21.6053 41.051C21.6053 41.419 21.5363 41.6643 21.3983 41.787C21.2757 41.8943 21.0917 41.948 20.8463 41.948C20.5703 41.948 20.371 41.8943 20.2483 41.787C20.141 41.6643 20.0797 41.5263 20.0643 41.373C20.0643 41.1277 20.0183 40.8517 19.9263 40.545C19.8497 40.223 19.6963 39.9163 19.4663 39.625C19.2517 39.3183 18.9297 39.073 18.5003 38.889C18.0863 38.6897 17.542 38.59 16.8673 38.59C15.794 38.59 14.9737 38.8813 14.4063 39.464C13.839 40.0313 13.5553 40.913 13.5553 42.109V49.216C13.5553 50.4273 13.839 51.3167 14.4063 51.884C14.989 52.4513 15.8323 52.735 16.9363 52.735C17.6263 52.735 18.1707 52.643 18.5693 52.459C18.968 52.2597 19.267 52.022 19.4663 51.746C19.6657 51.4547 19.8037 51.148 19.8803 50.826C19.9723 50.4887 20.0337 50.182 20.0643 49.906C20.095 49.7067 20.164 49.561 20.2713 49.469C20.394 49.3617 20.578 49.308 20.8233 49.308C21.084 49.308 21.2757 49.377 21.3983 49.515C21.5363 49.6377 21.6053 49.883 21.6053 50.251C21.6053 50.941 21.4137 51.585 21.0303 52.183C20.647 52.7657 20.095 53.241 19.3743 53.609C18.669 53.9617 17.8103 54.138 16.7983 54.138ZM27.6655 54.161C26.7915 54.161 26.0478 53.9157 25.4345 53.425C24.8365 52.919 24.5375 52.1523 24.5375 51.125C24.5375 50.2817 24.7598 49.6377 25.2045 49.193C25.6645 48.733 26.2931 48.4187 27.0905 48.25C27.9031 48.066 28.8385 47.974 29.8965 47.974H31.0695V47.445C31.0695 46.939 30.9775 46.4483 30.7935 45.973C30.6248 45.4823 30.3411 45.0837 29.9425 44.777C29.5591 44.455 29.0301 44.294 28.3555 44.294C27.8495 44.294 27.4355 44.3477 27.1135 44.455C26.7915 44.5623 26.5385 44.6773 26.3545 44.8C26.1705 44.9073 26.0171 44.961 25.8945 44.961C25.7105 44.961 25.5571 44.869 25.4345 44.685C25.3271 44.501 25.2735 44.3323 25.2735 44.179C25.2735 43.9643 25.4345 43.7727 25.7565 43.604C26.0785 43.42 26.4771 43.2743 26.9525 43.167C27.4431 43.0443 27.9261 42.983 28.4015 42.983C29.4288 42.983 30.2415 43.1977 30.8395 43.627C31.4528 44.041 31.8898 44.5853 32.1505 45.26C32.4265 45.9347 32.5645 46.6553 32.5645 47.422V53.402C32.5645 53.5707 32.4955 53.7163 32.3575 53.839C32.2348 53.9463 32.0585 54 31.8285 54C31.6445 54 31.4758 53.9463 31.3225 53.839C31.1845 53.7163 31.1155 53.5707 31.1155 53.402V52.39C30.7321 52.85 30.2568 53.264 29.6895 53.632C29.1221 53.9847 28.4475 54.161 27.6655 54.161ZM28.0335 52.896C28.5395 52.896 29.0225 52.7657 29.4825 52.505C29.9425 52.2443 30.3181 51.93 30.6095 51.562C30.9161 51.1787 31.0695 50.8183 31.0695 50.481V49.009H30.1035C29.4135 49.009 28.7541 49.055 28.1255 49.147C27.5121 49.2237 27.0061 49.4 26.6075 49.676C26.2241 49.952 26.0325 50.389 26.0325 50.987C26.0325 51.6463 26.2241 52.1293 26.6075 52.436C27.0061 52.7427 27.4815 52.896 28.0335 52.896ZM37.6584 54C37.4591 54 37.2828 53.9387 37.1294 53.816C36.9914 53.6933 36.9224 53.5553 36.9224 53.402V37.026C36.9224 36.842 36.9914 36.704 37.1294 36.612C37.2828 36.5047 37.4591 36.451 37.6584 36.451C37.8731 36.451 38.0494 36.5047 38.1874 36.612C38.3408 36.704 38.4174 36.842 38.4174 37.026V53.402C38.4174 53.5553 38.3408 53.6933 38.1874 53.816C38.0494 53.9387 37.8731 54 37.6584 54ZM46.9736 54.161C45.9616 54.161 45.1259 53.9693 44.4666 53.586C43.8073 53.2027 43.3166 52.6813 42.9946 52.022C42.6726 51.3627 42.5116 50.619 42.5116 49.791V47.353C42.5116 46.525 42.6649 45.7813 42.9716 45.122C43.2936 44.4627 43.7843 43.9413 44.4436 43.558C45.1183 43.1747 45.9616 42.983 46.9736 42.983C47.6176 42.983 48.1773 43.0673 48.6526 43.236C49.1433 43.3893 49.5189 43.581 49.7796 43.811C50.0556 44.041 50.1936 44.2633 50.1936 44.478C50.1936 44.5853 50.1629 44.7003 50.1016 44.823C50.0556 44.9303 49.9789 45.0223 49.8716 45.099C49.7796 45.1757 49.6723 45.214 49.5496 45.214C49.4116 45.214 49.2506 45.145 49.0666 45.007C48.8979 44.8537 48.6603 44.708 48.3536 44.57C48.0469 44.432 47.6099 44.363 47.0426 44.363C46.0459 44.363 45.2869 44.6313 44.7656 45.168C44.2596 45.6893 44.0066 46.4177 44.0066 47.353V49.791C44.0066 50.7263 44.2596 51.4623 44.7656 51.999C45.2869 52.5203 46.0536 52.781 47.0656 52.781C47.6483 52.781 48.1006 52.712 48.4226 52.574C48.7446 52.4207 48.9899 52.275 49.1586 52.137C49.3426 51.9837 49.5113 51.907 49.6646 51.907C49.8026 51.907 49.9176 51.9453 50.0096 52.022C50.1169 52.0987 50.1936 52.1907 50.2396 52.298C50.3009 52.4053 50.3316 52.5203 50.3316 52.643C50.3316 52.8423 50.1936 53.0647 49.9176 53.31C49.6416 53.54 49.2506 53.7393 48.7446 53.908C48.2539 54.0767 47.6636 54.161 46.9736 54.161ZM58.0391 54.161C57.2265 54.161 56.4828 53.9617 55.8081 53.563C55.1488 53.1643 54.6198 52.6353 54.2211 51.976C53.8378 51.3013 53.6461 50.5883 53.6461 49.837V43.719C53.6461 43.5657 53.7228 43.4277 53.8761 43.305C54.0295 43.1823 54.2058 43.121 54.4051 43.121C54.6045 43.121 54.7731 43.1823 54.9111 43.305C55.0645 43.4277 55.1411 43.5657 55.1411 43.719V49.837C55.1411 50.343 55.2715 50.8183 55.5321 51.263C55.7928 51.7077 56.1378 52.0757 56.5671 52.367C56.9965 52.643 57.4795 52.781 58.0161 52.781C58.5681 52.781 59.0588 52.643 59.4881 52.367C59.9175 52.091 60.2548 51.7307 60.5001 51.286C60.7608 50.826 60.8911 50.343 60.8911 49.837V43.696C60.8911 43.5273 60.9678 43.3893 61.1211 43.282C61.2745 43.1747 61.4508 43.121 61.6501 43.121C61.8801 43.121 62.0565 43.1747 62.1791 43.282C62.3171 43.3893 62.3861 43.5273 62.3861 43.696V49.837C62.3861 50.619 62.1868 51.3397 61.7881 51.999C61.4048 52.643 60.8758 53.1643 60.2011 53.563C59.5418 53.9617 58.8211 54.161 58.0391 54.161ZM70.4153 54.138C69.434 54.138 68.583 53.9693 67.8623 53.632C67.1416 53.2793 66.582 52.7963 66.1833 52.183C65.7846 51.5697 65.5853 50.872 65.5853 50.09C65.5853 49.7833 65.6466 49.5763 65.7693 49.469C65.9073 49.3617 66.099 49.308 66.3443 49.308C66.5283 49.308 66.697 49.354 66.8503 49.446C67.019 49.538 67.1033 49.6913 67.1033 49.906C67.1186 50.4733 67.2566 50.9717 67.5173 51.401C67.778 51.8303 68.1536 52.16 68.6443 52.39C69.135 52.62 69.71 52.735 70.3693 52.735C71.3966 52.735 72.194 52.4513 72.7613 51.884C73.344 51.3013 73.6353 50.412 73.6353 49.216V38.59H70.3923C70.2236 38.59 70.0856 38.521 69.9783 38.383C69.8863 38.2297 69.8403 38.061 69.8403 37.877C69.8403 37.7083 69.8786 37.555 69.9553 37.417C70.0473 37.2637 70.193 37.187 70.3923 37.187H74.4633C74.632 37.187 74.7853 37.2407 74.9233 37.348C75.0766 37.44 75.1533 37.5857 75.1533 37.785V49.216C75.1533 50.412 74.9386 51.3703 74.5093 52.091C74.0953 52.8117 73.528 53.333 72.8073 53.655C72.102 53.977 71.3046 54.138 70.4153 54.138ZM83.7274 54.161C82.7461 54.161 81.9028 54.0153 81.1974 53.724C80.4921 53.4173 79.9478 53.0723 79.5644 52.689C79.1964 52.2903 79.0124 51.953 79.0124 51.677C79.0124 51.5543 79.0431 51.424 79.1044 51.286C79.1811 51.148 79.2731 51.0407 79.3804 50.964C79.4878 50.872 79.5951 50.826 79.7024 50.826C79.8558 50.826 80.0091 50.9257 80.1624 51.125C80.3311 51.309 80.5458 51.5313 80.8064 51.792C81.0824 52.0373 81.4428 52.2597 81.8874 52.459C82.3321 52.643 82.9148 52.735 83.6354 52.735C84.3561 52.735 84.9694 52.62 85.4754 52.39C85.9814 52.1447 86.3724 51.792 86.6484 51.332C86.9244 50.8567 87.0624 50.2663 87.0624 49.561C87.0624 48.825 86.9244 48.2347 86.6484 47.79C86.3724 47.3453 86.0044 46.9773 85.5444 46.686C85.0998 46.3947 84.6091 46.1493 84.0724 45.95C83.5358 45.7507 82.9914 45.5437 82.4394 45.329C81.9028 45.1143 81.4044 44.8537 80.9444 44.547C80.4844 44.225 80.1164 43.811 79.8404 43.305C79.5644 42.7837 79.4264 42.1243 79.4264 41.327C79.4264 40.499 79.5798 39.8167 79.8864 39.28C80.1931 38.728 80.5841 38.2987 81.0594 37.992C81.5501 37.6853 82.0791 37.4707 82.6464 37.348C83.2138 37.21 83.7658 37.141 84.3024 37.141C84.7318 37.141 85.1688 37.1793 85.6134 37.256C86.0734 37.3173 86.4951 37.4093 86.8784 37.532C87.2618 37.6547 87.5684 37.808 87.7984 37.992C88.0438 38.1607 88.1664 38.3523 88.1664 38.567C88.1664 38.659 88.1358 38.774 88.0744 38.912C88.0284 39.0347 87.9594 39.1497 87.8674 39.257C87.7754 39.3643 87.6528 39.418 87.4994 39.418C87.3614 39.418 87.1698 39.349 86.9244 39.211C86.6791 39.0577 86.3418 38.912 85.9124 38.774C85.4984 38.6207 84.9541 38.544 84.2794 38.544C83.7274 38.544 83.1908 38.6207 82.6694 38.774C82.1634 38.9273 81.7494 39.2033 81.4274 39.602C81.1054 39.9853 80.9444 40.5143 80.9444 41.189C80.9444 41.8023 81.0824 42.3007 81.3584 42.684C81.6498 43.052 82.0178 43.351 82.4624 43.581C82.9224 43.811 83.4208 44.0257 83.9574 44.225C84.4941 44.409 85.0308 44.6237 85.5674 44.869C86.1194 45.099 86.6178 45.398 87.0624 45.766C87.5224 46.1187 87.8904 46.5863 88.1664 47.169C88.4424 47.7517 88.5804 48.503 88.5804 49.423C88.5804 50.5117 88.3734 51.4087 87.9594 52.114C87.5454 52.804 86.9704 53.3177 86.2344 53.655C85.5138 53.9923 84.6781 54.161 83.7274 54.161Z" fill="white"/>
<path d="M14.4063 53.655L14.0055 54.5712L14.4063 53.655ZM12.6583 52.091L11.7992 52.6028L12.6583 52.091ZM14.4293 37.67L14.0285 36.7538L14.0214 36.757L14.4293 37.67ZM19.4203 37.716L18.9731 38.6104L18.9731 38.6104L19.4203 37.716ZM21.0303 39.119L20.1848 39.653L20.1898 39.6609L20.1949 39.6686L21.0303 39.119ZM21.3983 41.787L22.0569 42.5396L22.0627 42.5344L21.3983 41.787ZM20.2483 41.787L19.4958 42.4455L19.5397 42.4957L19.5898 42.5396L20.2483 41.787ZM20.0643 41.373H19.0643V41.4229L19.0693 41.4725L20.0643 41.373ZM19.9263 40.545L18.9535 40.7766L18.9602 40.8047L18.9685 40.8323L19.9263 40.545ZM19.4663 39.625L18.6471 40.1985L18.6636 40.222L18.6814 40.2446L19.4663 39.625ZM18.5003 38.889L18.0665 39.79L18.0863 39.7995L18.1064 39.8081L18.5003 38.889ZM14.4063 39.464L15.1135 40.1712L15.1228 40.1616L14.4063 39.464ZM14.4063 51.884L13.6992 52.5912L13.7087 52.6005L14.4063 51.884ZM18.5693 52.459L18.9884 53.367L19.0026 53.3604L19.0165 53.3534L18.5693 52.459ZM19.4663 51.746L20.277 52.3315L20.2845 52.3212L20.2916 52.3107L19.4663 51.746ZM19.8803 50.826L18.9156 50.5629L18.9113 50.5786L18.9075 50.5944L19.8803 50.826ZM20.0643 49.906L19.076 49.7539L19.0728 49.7747L19.0704 49.7956L20.0643 49.906ZM20.2713 49.469L20.9222 50.2283L20.9298 50.2216L20.2713 49.469ZM21.3983 49.515L20.6509 50.1794L20.69 50.2233L20.734 50.2624L21.3983 49.515ZM21.0303 52.183L21.8658 52.7327L21.8722 52.7227L21.0303 52.183ZM19.3743 53.609L19.8216 54.5035L19.8291 54.4996L19.3743 53.609ZM16.7983 53.138C16.068 53.138 15.4082 53.0018 14.8072 52.7388L14.0055 54.5712C14.8764 54.9522 15.8113 55.138 16.7983 55.138V53.138ZM14.8072 52.7388C14.2712 52.5044 13.845 52.129 13.5174 51.5792L11.7992 52.6028C12.3304 53.4943 13.0695 54.1616 14.0055 54.5712L14.8072 52.7388ZM13.5174 51.5792C13.2115 51.0656 13.0143 50.3044 13.0143 49.216H11.0143C11.0143 50.5196 11.2465 51.675 11.7992 52.6028L13.5174 51.5792ZM13.0143 49.216V42.109H11.0143V49.216H13.0143ZM13.0143 42.109C13.0143 41.0256 13.2173 40.2697 13.5324 39.7591L11.8303 38.7089C11.256 39.6396 11.0143 40.8004 11.0143 42.109H13.0143ZM13.5324 39.7591C13.8797 39.1962 14.3134 38.8171 14.8373 38.583L14.0214 36.757C13.1039 37.1669 12.3723 37.8305 11.8303 38.7089L13.5324 39.7591ZM14.8302 38.5862C15.429 38.3242 16.096 38.187 16.8443 38.187V36.187C15.8446 36.187 14.9017 36.3718 14.0285 36.7538L14.8302 38.5862ZM16.8443 38.187C17.7437 38.187 18.4403 38.344 18.9731 38.6104L19.8675 36.8216C18.9897 36.3827 17.969 36.187 16.8443 36.187V38.187ZM18.9731 38.6104C19.5393 38.8935 19.9276 39.2458 20.1848 39.653L21.8758 38.585C21.397 37.8269 20.712 37.2438 19.8675 36.8216L18.9731 38.6104ZM20.1949 39.6686C20.4696 40.0861 20.6053 40.5387 20.6053 41.051H22.6053C22.6053 40.1527 22.3577 39.3172 21.8657 38.5694L20.1949 39.6686ZM20.6053 41.051C20.6053 41.1125 20.6024 41.1589 20.5987 41.1922C20.5949 41.2259 20.5909 41.2405 20.5909 41.2403C20.5911 41.2397 20.5927 41.2341 20.5966 41.2244C20.6005 41.2147 20.607 41.2 20.6173 41.1817C20.6381 41.1448 20.6747 41.0923 20.734 41.0396L22.0627 42.5344C22.5486 42.1025 22.6053 41.4537 22.6053 41.051H20.6053ZM20.7398 41.0344C20.8057 40.9768 20.8649 40.9546 20.8883 40.9477C20.9086 40.9418 20.8993 40.948 20.8463 40.948V42.948C21.2154 42.948 21.679 42.8701 22.0568 42.5396L20.7398 41.0344ZM20.8463 40.948C20.8093 40.948 20.7829 40.9462 20.7659 40.9443C20.7487 40.9423 20.7443 40.9406 20.7498 40.9421C20.7593 40.9447 20.8269 40.9645 20.9068 41.0344L19.5898 42.5396C19.9847 42.8851 20.4828 42.948 20.8463 42.948V40.948ZM21.0009 41.1285C21.0081 41.1367 21.0224 41.1556 21.0356 41.1854C21.0491 41.2156 21.0567 41.2465 21.0594 41.2735L19.0693 41.4725C19.1066 41.8452 19.2598 42.1759 19.4958 42.4455L21.0009 41.1285ZM21.0643 41.373C21.0643 41.0059 20.9961 40.6308 20.8842 40.2577L18.9685 40.8323C19.0406 41.0725 19.0643 41.2494 19.0643 41.373H21.0643ZM20.8991 40.3134C20.7849 39.8336 20.5603 39.3969 20.2512 39.0054L18.6814 40.2446C18.8323 40.4358 18.9144 40.6124 18.9535 40.7766L20.8991 40.3134ZM20.2856 39.0515C19.9405 38.5586 19.4526 38.2091 18.8943 37.9699L18.1064 39.8081C18.4068 39.9369 18.5628 40.0781 18.6471 40.1985L20.2856 39.0515ZM18.9341 37.988C18.3366 37.7003 17.6274 37.59 16.8673 37.59V39.59C17.4566 39.59 17.8361 39.6791 18.0665 39.79L18.9341 37.988ZM16.8673 37.59C15.614 37.59 14.5 37.9343 13.6899 38.7664L15.1228 40.1616C15.4473 39.8284 15.974 39.59 16.8673 39.59V37.59ZM13.6992 38.7569C12.8695 39.5866 12.5553 40.7767 12.5553 42.109H14.5553C14.5553 41.0493 14.8085 40.4761 15.1134 40.1711L13.6992 38.7569ZM12.5553 42.109V49.216H14.5553V42.109H12.5553ZM12.5553 49.216C12.5553 50.5593 12.8675 51.7594 13.6992 52.5911L15.1134 51.1769C14.8105 50.874 14.5553 50.2954 14.5553 49.216H12.5553ZM13.7087 52.6005C14.5367 53.4067 15.667 53.735 16.9363 53.735V51.735C15.9977 51.735 15.4413 51.496 15.1039 51.1675L13.7087 52.6005ZM16.9363 53.735C17.6971 53.735 18.4046 53.6364 18.9884 53.367L18.1503 51.551C17.9367 51.6496 17.5556 51.735 16.9363 51.735V53.735ZM19.0165 53.3534C19.5165 53.1035 19.9586 52.7724 20.277 52.3315L18.6557 51.1605C18.5754 51.2716 18.4195 51.4159 18.1221 51.5646L19.0165 53.3534ZM20.2916 52.3107C20.5555 51.9251 20.7463 51.5065 20.8531 51.0576L18.9075 50.5944C18.8611 50.7895 18.7759 50.9843 18.641 51.1813L20.2916 52.3107ZM20.8451 51.0891C20.9474 50.7139 21.0206 50.3552 21.0582 50.0164L19.0704 49.7956C19.0468 50.0088 18.9972 50.2634 18.9156 50.5629L20.8451 51.0891ZM21.0527 50.0581C21.0623 49.9956 21.0603 50.1098 20.9221 50.2283L19.6205 48.7097C19.2677 49.0122 19.1277 49.4177 19.076 49.7539L21.0527 50.0581ZM20.9298 50.2216C20.864 50.2792 20.8047 50.3014 20.7813 50.3083C20.7611 50.3142 20.7703 50.308 20.8233 50.308V48.308C20.4542 48.308 19.9906 48.3859 19.6128 48.7164L20.9298 50.2216ZM20.8233 50.308C20.8689 50.308 20.8623 50.3145 20.8239 50.3006C20.7791 50.2845 20.7117 50.2478 20.6509 50.1794L22.1457 48.8506C21.7654 48.4228 21.2484 48.308 20.8233 48.308V50.308ZM20.734 50.2624C20.6747 50.2097 20.6381 50.1572 20.6173 50.1203C20.607 50.102 20.6005 50.0873 20.5966 50.0776C20.5927 50.0679 20.5911 50.0623 20.5909 50.0617C20.5909 50.0615 20.5949 50.0761 20.5987 50.1098C20.6024 50.1431 20.6053 50.1895 20.6053 50.251H22.6053C22.6053 49.8483 22.5486 49.1995 22.0627 48.7676L20.734 50.2624ZM20.6053 50.251C20.6053 50.7438 20.4718 51.2014 20.1885 51.6433L21.8722 52.7227C22.3556 51.9686 22.6053 51.1382 22.6053 50.251H20.6053ZM20.1949 51.6334C19.9211 52.0496 19.5109 52.4164 18.9196 52.7184L19.8291 54.4996C20.6791 54.0656 21.3729 53.4817 21.8658 52.7326L20.1949 51.6334ZM18.9271 52.7146C18.3943 52.981 17.6977 53.138 16.7983 53.138V55.138C17.923 55.138 18.9437 54.9423 19.8215 54.5034L18.9271 52.7146ZM25.4345 53.425L24.7885 54.1884L24.799 54.1973L24.8098 54.2059L25.4345 53.425ZM25.2045 49.193L25.9116 49.9001L25.2045 49.193ZM27.0905 48.25L27.2974 49.2283L27.3044 49.2269L27.3113 49.2253L27.0905 48.25ZM31.0695 47.974V48.974H32.0695V47.974H31.0695ZM30.7935 45.973L29.8478 46.2981L29.854 46.3162L29.8609 46.334L30.7935 45.973ZM29.9425 44.777L29.2993 45.5427L29.3157 45.5565L29.3328 45.5696L29.9425 44.777ZM26.3545 44.8L26.8583 45.6638L26.8842 45.6487L26.9092 45.632L26.3545 44.8ZM25.4345 44.685L24.5707 45.1889L24.5858 45.2148L24.6024 45.2397L25.4345 44.685ZM25.7565 43.604L26.2205 44.4898L26.2367 44.4813L26.2526 44.4722L25.7565 43.604ZM26.9525 43.167L27.1727 44.1424L27.1839 44.1399L27.195 44.1371L26.9525 43.167ZM30.8395 43.627L30.2563 44.4393L30.268 44.4478L30.28 44.4558L30.8395 43.627ZM32.1505 45.26L31.2177 45.6204L31.2212 45.6296L31.2249 45.6386L32.1505 45.26ZM32.3575 53.839L33.016 54.5916L33.0218 54.5864L32.3575 53.839ZM31.3225 53.839L30.6581 54.5864L30.7015 54.625L30.749 54.6582L31.3225 53.839ZM31.1155 52.39H32.1155V49.6279L30.3473 51.7498L31.1155 52.39ZM29.6895 53.632L30.2174 54.4813L30.2256 54.4762L30.2337 54.471L29.6895 53.632ZM29.4825 52.505L28.9895 51.635L29.4825 52.505ZM30.6095 51.562L29.8286 50.9373L29.8254 50.9413L30.6095 51.562ZM31.0695 49.009H32.0695V48.009H31.0695V49.009ZM28.1255 49.147L28.2495 50.1393L28.2599 50.138L28.2703 50.1365L28.1255 49.147ZM26.6075 49.676L26.0383 48.8538L26.0307 48.8591L26.0232 48.8645L26.6075 49.676ZM26.6075 52.436L25.9828 53.2169L25.9902 53.2228L25.9978 53.2286L26.6075 52.436ZM27.6655 53.161C26.9914 53.161 26.4751 52.9769 26.0592 52.6441L24.8098 54.2059C25.6205 54.8545 26.5916 55.161 27.6655 55.161V53.161ZM26.0804 52.6616C25.7722 52.4008 25.5375 51.956 25.5375 51.125H23.5375C23.5375 52.3486 23.9007 53.4372 24.7885 54.1884L26.0804 52.6616ZM25.5375 51.125C25.5375 50.4536 25.7114 50.1002 25.9116 49.9001L24.4974 48.4859C23.8082 49.1751 23.5375 50.1097 23.5375 51.125H25.5375ZM25.9116 49.9001C26.2038 49.6079 26.6417 49.3671 27.2974 49.2283L26.8835 47.2717C25.9445 47.4703 25.1252 47.8581 24.4974 48.4859L25.9116 49.9001ZM27.3113 49.2253C28.0352 49.0614 28.8939 48.974 29.8965 48.974V46.974C28.7831 46.974 27.7711 47.0706 26.8696 47.2747L27.3113 49.2253ZM29.8965 48.974H31.0695V46.974H29.8965V48.974ZM32.0695 47.974V47.445H30.0695V47.974H32.0695ZM32.0695 47.445C32.0695 46.8146 31.9543 46.2016 31.726 45.612L29.8609 46.334C30.0007 46.6951 30.0695 47.0634 30.0695 47.445H32.0695ZM31.7392 45.6479C31.5089 44.978 31.1114 44.4145 30.5522 43.9844L29.3328 45.5696C29.5709 45.7528 29.7407 45.9866 29.8478 46.2981L31.7392 45.6479ZM30.5857 44.0113C29.968 43.4924 29.1833 43.294 28.3555 43.294V45.294C28.8769 45.294 29.1503 45.4176 29.2993 45.5427L30.5857 44.0113ZM28.3555 43.294C27.7894 43.294 27.2581 43.3527 26.7972 43.5063L27.4297 45.4037C27.6128 45.3426 27.9095 45.294 28.3555 45.294V43.294ZM26.7972 43.5063C26.4308 43.6285 26.086 43.7771 25.7998 43.9679L26.9092 45.632C26.9909 45.5775 27.1522 45.4962 27.4297 45.4037L26.7972 43.5063ZM25.8506 43.9362C25.8252 43.951 25.8056 43.9612 25.7915 43.968C25.7773 43.9747 25.7706 43.9771 25.7711 43.9769C25.7715 43.9768 25.7819 43.9731 25.8014 43.9693C25.8208 43.9655 25.8526 43.961 25.8945 43.961V45.961C26.281 45.961 26.6196 45.803 26.8583 45.6638L25.8506 43.9362ZM25.8945 43.961C25.9782 43.961 26.0726 43.9845 26.156 44.0345C26.2327 44.0805 26.2647 44.1276 26.2665 44.1303L24.6024 45.2397C24.8676 45.6374 25.3054 45.961 25.8945 45.961V43.961ZM26.2983 44.1811C26.2866 44.1611 26.2788 44.1456 26.2737 44.1346C26.2687 44.1236 26.2668 44.1179 26.2666 44.1173C26.2663 44.1162 26.2735 44.1383 26.2735 44.179H24.2735C24.2735 44.5652 24.4073 44.9087 24.5707 45.1889L26.2983 44.1811ZM26.2735 44.179C26.2735 44.2538 26.2588 44.3264 26.2333 44.3907C26.2086 44.453 26.1789 44.4949 26.1599 44.5174C26.1278 44.5557 26.1271 44.5388 26.2205 44.4898L25.2925 42.7182C24.8806 42.9339 24.2735 43.3832 24.2735 44.179H26.2735ZM26.2526 44.4722C26.4663 44.3501 26.7657 44.2344 27.1727 44.1424L26.7322 42.1916C26.1886 42.3143 25.6906 42.4899 25.2603 42.7358L26.2526 44.4722ZM27.195 44.1371C27.6114 44.033 28.013 43.983 28.4015 43.983V41.983C27.8393 41.983 27.2749 42.0556 26.7099 42.1969L27.195 44.1371ZM28.4015 43.983C29.3 43.983 29.8836 44.1718 30.2563 44.4393L31.4227 42.8147C30.5993 42.2235 29.5576 41.983 28.4015 41.983V43.983ZM30.28 44.4558C30.7281 44.7583 31.0325 45.141 31.2177 45.6204L33.0833 44.8996C32.7472 44.0297 32.1775 43.3237 31.3989 42.7982L30.28 44.4558ZM31.2249 45.6386C31.4492 46.187 31.5645 46.7784 31.5645 47.422H33.5645C33.5645 46.5323 33.4037 45.6824 33.076 44.8814L31.2249 45.6386ZM31.5645 47.422V53.402H33.5645V47.422H31.5645ZM31.5645 53.402C31.5645 53.3453 31.5772 53.2769 31.609 53.2097C31.6398 53.1446 31.6762 53.1066 31.6931 53.0916L33.0218 54.5864C33.3507 54.2941 33.5645 53.8853 33.5645 53.402H31.5645ZM31.699 53.0864C31.7574 53.0353 31.8125 53.0121 31.8421 53.0031C31.8683 52.9951 31.8681 53 31.8285 53V55C32.2019 55 32.6483 54.9133 33.016 54.5916L31.699 53.0864ZM31.8285 53C31.8353 53 31.8496 53.0012 31.8672 53.0068C31.8846 53.0124 31.8946 53.0188 31.8959 53.0198L30.749 54.6582C31.0673 54.8811 31.4356 55 31.8285 55V53ZM31.9868 53.0916C32.0038 53.1066 32.0402 53.1446 32.071 53.2097C32.1028 53.2769 32.1155 53.3453 32.1155 53.402H30.1155C30.1155 53.8853 30.3293 54.2941 30.6581 54.5864L31.9868 53.0916ZM32.1155 53.402V52.39H30.1155V53.402H32.1155ZM30.3473 51.7498C30.0359 52.1234 29.6391 52.4727 29.1453 52.793L30.2337 54.471C30.8745 54.0553 31.4284 53.5766 31.8837 53.0302L30.3473 51.7498ZM29.1615 52.7827C28.7781 53.0211 28.2932 53.161 27.6655 53.161V55.161C28.6017 55.161 29.4662 54.9482 30.2174 54.4813L29.1615 52.7827ZM28.0335 53.896C28.7202 53.896 29.3722 53.7169 29.9755 53.375L28.9895 51.635C28.6728 51.8144 28.3588 51.896 28.0335 51.896V53.896ZM29.9755 53.375C30.5335 53.0588 31.0127 52.6638 31.3935 52.1827L29.8254 50.9413C29.6236 51.1962 29.3514 51.4299 28.9895 51.635L29.9755 53.375ZM31.3903 52.1867C31.7763 51.7043 32.0695 51.1286 32.0695 50.481H30.0695C30.0695 50.508 30.056 50.653 29.8286 50.9373L31.3903 52.1867ZM32.0695 50.481V49.009H30.0695V50.481H32.0695ZM31.0695 48.009H30.1035V50.009H31.0695V48.009ZM30.1035 48.009C29.3691 48.009 28.6612 48.058 27.9807 48.1575L28.2703 50.1365C28.8471 50.052 29.4578 50.009 30.1035 50.009V48.009ZM28.0014 48.1547C27.271 48.246 26.6009 48.4643 26.0383 48.8538L27.1767 50.4982C27.4114 50.3357 27.7533 50.2013 28.2495 50.1393L28.0014 48.1547ZM26.0232 48.8645C25.3101 49.3778 25.0325 50.1626 25.0325 50.987H27.0325C27.0325 50.6154 27.1381 50.5262 27.1918 50.4875L26.0232 48.8645ZM25.0325 50.987C25.0325 51.8387 25.2871 52.6603 25.9828 53.2169L27.2322 51.6551C27.1612 51.5984 27.0325 51.454 27.0325 50.987H25.0325ZM25.9978 53.2286C26.5885 53.683 27.2837 53.896 28.0335 53.896V51.896C27.6792 51.896 27.4238 51.8023 27.2172 51.6434L25.9978 53.2286ZM37.1294 53.816L36.4651 54.5634L36.4845 54.5807L36.5047 54.5969L37.1294 53.816ZM37.1294 36.612L37.6841 37.4441L37.6936 37.4377L37.7029 37.4312L37.1294 36.612ZM38.1874 36.612L37.5735 37.4014L37.6212 37.4384L37.6729 37.4695L38.1874 36.612ZM38.1874 53.816L37.5627 53.0351L37.5425 53.0513L37.5231 53.0686L38.1874 53.816ZM37.6584 53C37.663 53 37.6808 53.001 37.7052 53.0095C37.7298 53.0181 37.7467 53.0292 37.7541 53.0351L36.5047 54.5969C36.8383 54.8637 37.2358 55 37.6584 55V53ZM37.7938 53.0686C37.8016 53.0755 37.8362 53.1085 37.8686 53.1733C37.9031 53.2422 37.9224 53.3224 37.9224 53.402H35.9224C35.9224 53.8989 36.1611 54.2932 36.4651 54.5634L37.7938 53.0686ZM37.9224 53.402V37.026H35.9224V53.402H37.9224ZM37.9224 37.026C37.9224 37.0596 37.9157 37.1376 37.8686 37.2317C37.8195 37.33 37.7487 37.401 37.6841 37.4441L36.5747 35.7799C36.1245 36.0801 35.9224 36.5507 35.9224 37.026H37.9224ZM37.7029 37.4312C37.6994 37.4337 37.6942 37.4369 37.6876 37.4401C37.681 37.4434 37.6742 37.446 37.6678 37.4479C37.6543 37.4521 37.6494 37.451 37.6584 37.451V35.451C37.268 35.451 36.8886 35.5599 36.556 35.7928L37.7029 37.4312ZM37.6584 37.451C37.6829 37.451 37.6808 37.4541 37.6605 37.4479C37.6382 37.4411 37.6061 37.4267 37.5735 37.4014L38.8014 35.8226C38.4508 35.55 38.0435 35.451 37.6584 35.451V37.451ZM37.6729 37.4695C37.6195 37.4374 37.5435 37.374 37.4858 37.2701C37.4288 37.1676 37.4174 37.0756 37.4174 37.026H39.4174C39.4174 36.5032 39.167 36.0336 38.7019 35.7545L37.6729 37.4695ZM37.4174 37.026V53.402H39.4174V37.026H37.4174ZM37.4174 53.402C37.4174 53.3036 37.4441 53.2098 37.4858 53.1349C37.524 53.0661 37.5618 53.0359 37.5627 53.0351L38.8121 54.5969C39.1303 54.3423 39.4174 53.9411 39.4174 53.402H37.4174ZM37.5231 53.0686C37.5531 53.0419 37.589 53.0214 37.6232 53.0095C37.6551 52.9984 37.6704 53 37.6584 53V55C38.0757 55 38.5014 54.8749 38.8518 54.5634L37.5231 53.0686ZM44.4666 53.586L44.9692 52.7215L44.4666 53.586ZM42.9946 52.022L42.096 52.4608L42.9946 52.022ZM42.9716 45.122L42.073 44.6832L42.0689 44.6917L42.0649 44.7003L42.9716 45.122ZM44.4436 43.558L43.9496 42.6885L43.941 42.6935L44.4436 43.558ZM48.6526 43.236L48.3182 44.1784L48.3362 44.1848L48.3543 44.1905L48.6526 43.236ZM49.7796 43.811L49.118 44.5608L49.1286 44.5702L49.1394 44.5792L49.7796 43.811ZM50.1016 44.823L49.2072 44.3758L49.194 44.4021L49.1825 44.4291L50.1016 44.823ZM49.8716 45.099L49.2904 44.2853L49.2601 44.3069L49.2314 44.3308L49.8716 45.099ZM49.0666 45.007L48.3939 45.7469L48.4289 45.7787L48.4666 45.807L49.0666 45.007ZM44.7656 45.168L44.0483 44.4712L44.048 44.4715L44.7656 45.168ZM44.7656 51.999L44.038 52.685L44.0481 52.6957L44.0585 52.7061L44.7656 51.999ZM48.4226 52.574L48.8165 53.4931L48.8347 53.4854L48.8525 53.4769L48.4226 52.574ZM49.1586 52.137L49.7919 52.911L49.7988 52.9052L49.1586 52.137ZM50.0096 52.022L49.3694 52.7902L49.3981 52.8141L49.4284 52.8357L50.0096 52.022ZM50.2396 52.298L49.3205 52.6919L49.343 52.7445L49.3714 52.7941L50.2396 52.298ZM49.9176 53.31L50.5578 54.0782L50.5701 54.068L50.582 54.0574L49.9176 53.31ZM48.7446 53.908L48.4284 52.9593L48.4195 52.9623L48.7446 53.908ZM46.9736 53.161C46.0822 53.161 45.4339 52.9917 44.9692 52.7215L43.964 54.4505C44.818 54.947 45.841 55.161 46.9736 55.161V53.161ZM44.9692 52.7215C44.474 52.4336 44.1247 52.0572 43.8932 51.5832L42.096 52.4608C42.5085 53.3054 43.1406 53.9718 43.964 54.4505L44.9692 52.7215ZM43.8932 51.5832C43.646 51.0771 43.5116 50.4866 43.5116 49.791H41.5116C41.5116 50.7514 41.6992 51.6482 42.096 52.4608L43.8932 51.5832ZM43.5116 49.791V47.353H41.5116V49.791H43.5116ZM43.5116 47.353C43.5116 46.6505 43.6411 46.0538 43.8783 45.5437L42.0649 44.7003C41.6888 45.5089 41.5116 46.3995 41.5116 47.353H43.5116ZM43.8702 45.5608C44.1017 45.0868 44.451 44.7104 44.9462 44.4225L43.941 42.6935C43.1176 43.1722 42.4855 43.8386 42.073 44.6832L43.8702 45.5608ZM44.9376 44.4275C45.4227 44.1519 46.0836 43.983 46.9736 43.983V41.983C45.8397 41.983 44.8139 42.1975 43.9496 42.6885L44.9376 44.4275ZM46.9736 43.983C47.5337 43.983 47.9753 44.0568 48.3182 44.1784L48.987 42.2936C48.3792 42.0779 47.7015 41.983 46.9736 41.983V43.983ZM48.3543 44.1905C48.7696 44.3202 49.0007 44.4574 49.118 44.5608L50.4412 43.0612C50.0372 42.7046 49.517 42.4584 48.9509 42.2815L48.3543 44.1905ZM49.1394 44.5792C49.1796 44.6127 49.2063 44.6389 49.2231 44.6572C49.2399 44.6756 49.2436 44.6827 49.2405 44.6776C49.2371 44.6722 49.2253 44.6518 49.2142 44.6167C49.2027 44.5805 49.1936 44.5332 49.1936 44.478H51.1936C51.1936 43.8157 50.7746 43.3384 50.4198 43.0428L49.1394 44.5792ZM49.1936 44.478C49.1936 44.3931 49.2178 44.3546 49.2072 44.3758L50.996 45.2702C51.1081 45.0461 51.1936 44.7776 51.1936 44.478H49.1936ZM49.1825 44.4291C49.1986 44.3915 49.2194 44.3588 49.2414 44.3323C49.2629 44.3065 49.2815 44.2916 49.2904 44.2853L50.4529 45.9127C50.6894 45.7438 50.8937 45.5135 51.0208 45.2169L49.1825 44.4291ZM49.2314 44.3308C49.2711 44.2977 49.3232 44.2659 49.3858 44.2435C49.448 44.2213 49.5051 44.214 49.5496 44.214V46.214C49.9 46.214 50.2354 46.0976 50.5118 45.8672L49.2314 44.3308ZM49.5496 44.214C49.6472 44.214 49.7076 44.2381 49.7193 44.2431C49.7306 44.248 49.7135 44.2422 49.6666 44.207L48.4666 45.807C48.7187 45.9961 49.0931 46.214 49.5496 46.214V44.214ZM49.7393 44.2671C49.4653 44.0179 49.1255 43.8207 48.764 43.6581L47.9432 45.4819C48.1951 45.5953 48.3306 45.6894 48.3939 45.7469L49.7393 44.2671ZM48.764 43.6581C48.2689 43.4353 47.6672 43.363 47.0426 43.363V45.363C47.5527 45.363 47.825 45.4287 47.9432 45.4819L48.764 43.6581ZM47.0426 43.363C45.8689 43.363 44.8143 43.6828 44.0483 44.4712L45.4829 45.8648C45.7596 45.5799 46.223 45.363 47.0426 45.363V43.363ZM44.048 44.4715C43.3131 45.2287 43.0066 46.2354 43.0066 47.353H45.0066C45.0066 46.5999 45.2061 46.15 45.4832 45.8645L44.048 44.4715ZM43.0066 47.353V49.791H45.0066V47.353H43.0066ZM43.0066 49.791C43.0066 50.9101 43.3136 51.9167 44.038 52.685L45.4932 51.313C45.2056 51.0079 45.0066 50.5425 45.0066 49.791H43.0066ZM44.0585 52.7061C44.8284 53.476 45.8894 53.781 47.0656 53.781V51.781C46.2178 51.781 45.7455 51.5646 45.4727 51.2919L44.0585 52.7061ZM47.0656 53.781C47.7056 53.781 48.3141 53.7085 48.8165 53.4931L48.0287 51.6549C47.8871 51.7155 47.591 51.781 47.0656 51.781V53.781ZM48.8525 53.4769C49.2075 53.3078 49.5341 53.1218 49.7919 52.911L48.5254 51.363C48.4458 51.4282 48.2817 51.5335 47.9927 51.6711L48.8525 53.4769ZM49.7988 52.9052C49.841 52.8701 49.8538 52.8672 49.8369 52.8749C49.8179 52.8835 49.7573 52.907 49.6646 52.907V50.907C49.1774 50.907 48.7864 51.1454 48.5184 51.3688L49.7988 52.9052ZM49.6646 52.907C49.6408 52.907 49.5956 52.9036 49.5381 52.8844C49.4788 52.8647 49.4204 52.8327 49.3694 52.7902L50.6498 51.2538C50.3512 51.0049 49.9989 50.907 49.6646 50.907V52.907ZM49.4284 52.8357C49.4195 52.8294 49.4009 52.8145 49.3794 52.7887C49.3574 52.7622 49.3366 52.7295 49.3205 52.6919L51.1588 51.9041C51.0317 51.6075 50.8274 51.3772 50.5909 51.2083L49.4284 52.8357ZM49.3714 52.7941C49.3609 52.7758 49.3501 52.7515 49.3424 52.7224C49.3346 52.6933 49.3316 52.666 49.3316 52.643H51.3316C51.3316 52.3449 51.2548 52.0591 51.1079 51.8019L49.3714 52.7941ZM49.3316 52.643C49.3316 52.576 49.3434 52.5222 49.3553 52.4858C49.3669 52.4505 49.3782 52.4324 49.3785 52.4319C49.3788 52.4314 49.3713 52.4434 49.35 52.4675C49.3289 52.4913 49.2977 52.5231 49.2533 52.5626L50.582 54.0574C50.9045 53.7707 51.3316 53.2935 51.3316 52.643H49.3316ZM49.2774 52.5418C49.1318 52.6631 48.868 52.8128 48.4284 52.9593L49.0608 54.8567C49.6332 54.6659 50.1514 54.4169 50.5578 54.0782L49.2774 52.5418ZM48.4195 52.9623C48.0616 53.0854 47.5872 53.161 46.9736 53.161V55.161C47.74 55.161 48.4463 55.068 49.0697 54.8537L48.4195 52.9623ZM55.8081 53.563L55.2907 54.4188L55.2994 54.4239L55.8081 53.563ZM54.2211 51.976L53.3517 52.47L53.3584 52.4818L53.3654 52.4934L54.2211 51.976ZM53.8761 43.305L53.2514 42.5241V42.5241L53.8761 43.305ZM54.9111 43.305L54.2468 44.0524L54.2662 44.0697L54.2864 44.0859L54.9111 43.305ZM55.5321 51.263L54.6694 51.7687L55.5321 51.263ZM56.5671 52.367L56.0056 53.1945L56.0159 53.2015L56.0264 53.2082L56.5671 52.367ZM59.4881 52.367L58.9474 51.5258L59.4881 52.367ZM60.5001 51.286L59.6301 50.793L59.6246 50.8029L60.5001 51.286ZM62.1791 43.282L61.5206 44.0346L61.5424 44.0536L61.5652 44.0714L62.1791 43.282ZM61.7881 51.999L60.9324 51.4816L60.9288 51.4875L61.7881 51.999ZM60.2011 53.563L59.6924 52.702L59.6837 52.7073L60.2011 53.563ZM58.0391 53.161C57.3985 53.161 56.8316 53.0062 56.3169 52.7021L55.2994 54.4239C56.134 54.9171 57.0544 55.161 58.0391 55.161V53.161ZM56.3256 52.7073C55.8047 52.3923 55.3918 51.9794 55.0769 51.4586L53.3654 52.4934C53.8478 53.2912 54.4929 53.9363 55.2907 54.4187L56.3256 52.7073ZM55.0906 51.482C54.7899 50.9528 54.6461 50.4093 54.6461 49.837H52.6461C52.6461 50.7674 52.8857 51.6499 53.3517 52.47L55.0906 51.482ZM54.6461 49.837V43.719H52.6461V49.837H54.6461ZM54.6461 43.719C54.6461 43.8174 54.6194 43.9112 54.5778 43.9861C54.5396 44.0549 54.5018 44.0851 54.5008 44.0859L53.2514 42.5241C52.9333 42.7787 52.6461 43.1799 52.6461 43.719H54.6461ZM54.5008 44.0859C54.4934 44.0918 54.4765 44.1029 54.4519 44.1115C54.4275 44.12 54.4097 44.121 54.4051 44.121V42.121C53.9825 42.121 53.585 42.2573 53.2514 42.5241L54.5008 44.0859ZM54.4051 44.121C54.4011 44.121 54.376 44.1201 54.3394 44.1068C54.3016 44.093 54.2694 44.0725 54.2468 44.0524L55.5755 42.5576C55.2392 42.2587 54.8282 42.121 54.4051 42.121V44.121ZM54.2864 44.0859C54.2855 44.0851 54.2477 44.0549 54.2095 43.9861C54.1678 43.9112 54.1411 43.8174 54.1411 43.719H56.1411C56.1411 43.1799 55.854 42.7787 55.5358 42.5241L54.2864 44.0859ZM54.1411 43.719V49.837H56.1411V43.719H54.1411ZM54.1411 49.837C54.1411 50.5242 54.3206 51.1737 54.6694 51.7687L56.3948 50.7573C56.2223 50.463 56.1411 50.1618 56.1411 49.837H54.1411ZM54.6694 51.7687C55.0058 52.3426 55.4541 52.8202 56.0056 53.1945L57.1286 51.5395C56.8215 51.3311 56.5798 51.0728 56.3948 50.7573L54.6694 51.7687ZM56.0264 53.2082C56.6255 53.5933 57.2981 53.781 58.0161 53.781V51.781C57.6608 51.781 57.3674 51.6927 57.1079 51.5258L56.0264 53.2082ZM58.0161 53.781C58.7436 53.781 59.4251 53.5963 60.0289 53.2082L58.9474 51.5258C58.6925 51.6897 58.3927 51.781 58.0161 51.781V53.781ZM60.0289 53.2082C60.5971 52.8429 61.0498 52.3598 61.3757 51.7691L59.6246 50.8029C59.4598 51.1015 59.2378 51.3391 58.9474 51.5258L60.0289 53.2082ZM61.3702 51.779C61.712 51.1757 61.8911 50.5237 61.8911 49.837H59.8911C59.8911 50.1623 59.8096 50.4763 59.6301 50.793L61.3702 51.779ZM61.8911 49.837V43.696H59.8911V49.837H61.8911ZM61.8911 43.696C61.8911 43.7696 61.8726 43.8619 61.8228 43.9516C61.775 44.0376 61.7193 44.0839 61.6946 44.1012L60.5477 42.4628C60.1612 42.7333 59.8911 43.1614 59.8911 43.696H61.8911ZM61.6946 44.1012C61.6911 44.1037 61.6859 44.1069 61.6793 44.1101C61.6726 44.1134 61.6659 44.116 61.6595 44.1179C61.646 44.1221 61.6411 44.121 61.6501 44.121V42.121C61.2597 42.121 60.8803 42.2299 60.5477 42.4628L61.6946 44.1012ZM61.6501 44.121C61.6898 44.121 61.6899 44.1259 61.6637 44.1179C61.6341 44.1089 61.579 44.0857 61.5206 44.0346L62.8376 42.5294C62.47 42.2077 62.0235 42.121 61.6501 42.121V44.121ZM61.5652 44.0714C61.5321 44.0456 61.4806 43.9945 61.44 43.9132C61.3987 43.8308 61.3861 43.7522 61.3861 43.696H63.3861C63.3861 43.2058 63.1643 42.7814 62.7931 42.4926L61.5652 44.0714ZM61.3861 43.696V49.837H63.3861V43.696H61.3861ZM61.3861 49.837C61.3861 50.4395 61.2352 50.9808 60.9324 51.4816L62.6439 52.5164C63.1384 51.6986 63.3861 50.7985 63.3861 49.837H61.3861ZM60.9288 51.4875C60.6352 51.9808 60.2296 52.3846 59.6924 52.7021L60.7099 54.4239C61.522 53.944 62.1744 53.3052 62.6474 52.5105L60.9288 51.4875ZM59.6837 52.7073C59.1829 53.0101 58.6416 53.161 58.0391 53.161V55.161C59.0007 55.161 59.9007 54.9133 60.7186 54.4187L59.6837 52.7073ZM67.8623 53.632L67.4227 54.5302L67.4305 54.534L67.4383 54.5377L67.8623 53.632ZM66.1833 52.183L65.3448 52.728L66.1833 52.183ZM65.7693 49.469L65.1553 48.6796L65.1325 48.6974L65.1108 48.7164L65.7693 49.469ZM66.8503 49.446L66.3358 50.3035L66.3534 50.3141L66.3714 50.3239L66.8503 49.446ZM67.1033 49.906H66.1033V49.9195L66.1037 49.933L67.1033 49.906ZM67.5173 51.401L66.6625 51.92L67.5173 51.401ZM68.6443 52.39L69.0687 51.4845L68.6443 52.39ZM72.7613 51.884L72.0542 51.1769L72.7613 51.884ZM73.6353 38.59H74.6353V37.59H73.6353V38.59ZM69.9783 38.383L69.1208 38.8975L69.1519 38.9493L69.1889 38.9969L69.9783 38.383ZM69.9553 37.417L69.0978 36.9025L69.0892 36.9168L69.0811 36.9314L69.9553 37.417ZM74.9233 37.348L74.3093 38.1374L74.357 38.1744L74.4088 38.2055L74.9233 37.348ZM74.5093 52.091L73.6502 51.5792L73.6461 51.586L73.6422 51.5929L74.5093 52.091ZM72.8073 53.655L72.3993 52.742L72.392 52.7453L72.8073 53.655ZM70.4153 53.138C69.5471 53.138 68.847 52.9888 68.2862 52.7263L67.4383 54.5377C68.319 54.9499 69.3208 55.138 70.4153 55.138V53.138ZM68.3018 52.7338C67.7274 52.4527 67.3124 52.0852 67.0217 51.638L65.3448 52.728C65.8515 53.5074 66.5558 54.106 67.4227 54.5302L68.3018 52.7338ZM67.0217 51.638C66.7359 51.1982 66.5853 50.6925 66.5853 50.09H64.5853C64.5853 51.0515 64.8334 51.9411 65.3448 52.728L67.0217 51.638ZM66.5853 50.09C66.5853 49.996 66.5955 49.9704 66.5901 49.9888C66.584 50.0092 66.5481 50.1163 66.4278 50.2216L65.1108 48.7164C64.6427 49.126 64.5853 49.7269 64.5853 50.09H66.5853ZM66.3832 50.2584C66.3366 50.2946 66.2981 50.3079 66.2862 50.3112C66.2767 50.3139 66.2925 50.308 66.3443 50.308V48.308C65.9644 48.308 65.5275 48.3902 65.1553 48.6796L66.3832 50.2584ZM66.3443 50.308C66.3485 50.308 66.3503 50.3083 66.3501 50.3082C66.3498 50.3082 66.3482 50.3079 66.3457 50.3073C66.3431 50.3066 66.3407 50.3057 66.3385 50.3048C66.3363 50.3039 66.3354 50.3033 66.3358 50.3035L67.3648 48.5885C67.0514 48.4005 66.704 48.308 66.3443 48.308V50.308ZM66.3714 50.3239C66.3053 50.2878 66.2225 50.2187 66.1638 50.1119C66.1083 50.011 66.1033 49.9293 66.1033 49.906H68.1033C68.1033 49.3778 67.8626 48.8591 67.3291 48.5681L66.3714 50.3239ZM66.1037 49.933C66.1231 50.6511 66.3004 51.3235 66.6625 51.92L68.3721 50.882C68.2129 50.6198 68.1142 50.2955 68.1029 49.879L66.1037 49.933ZM66.6625 51.92C67.0335 52.5311 67.5655 52.9887 68.2199 53.2955L69.0687 51.4845C68.7417 51.3313 68.5224 51.1296 68.3721 50.882L66.6625 51.92ZM68.2199 53.2955C68.869 53.5997 69.5944 53.735 70.3693 53.735V51.735C69.8255 51.735 69.4009 51.6403 69.0687 51.4845L68.2199 53.2955ZM70.3693 53.735C71.5839 53.735 72.6648 53.3947 73.4684 52.5911L72.0542 51.1769C71.7231 51.508 71.2093 51.735 70.3693 51.735V53.735ZM73.4684 52.5911C74.3091 51.7504 74.6353 50.5574 74.6353 49.216H72.6353C72.6353 50.2666 72.3788 50.8522 72.0542 51.1769L73.4684 52.5911ZM74.6353 49.216V38.59H72.6353V49.216H74.6353ZM73.6353 37.59H70.3923V39.59H73.6353V37.59ZM70.3923 37.59C70.4485 37.59 70.5271 37.6026 70.6095 37.6438C70.6908 37.6845 70.7419 37.7359 70.7676 37.7691L69.1889 38.9969C69.4777 39.3682 69.9021 39.59 70.3923 39.59V37.59ZM70.8358 37.8685C70.8355 37.8681 70.8361 37.8691 70.8371 37.8712C70.838 37.8734 70.8389 37.8759 70.8396 37.8784C70.8402 37.8809 70.8405 37.8825 70.8405 37.8828C70.8405 37.883 70.8403 37.8812 70.8403 37.877H68.8403C68.8403 38.2367 68.9327 38.5841 69.1208 38.8975L70.8358 37.8685ZM70.8403 37.877C70.8403 37.869 70.8411 37.8703 70.8392 37.878C70.8383 37.8817 70.8369 37.886 70.8351 37.8905C70.8333 37.8951 70.8313 37.8992 70.8294 37.9026L69.0811 36.9314C68.9163 37.2281 68.8403 37.5504 68.8403 37.877H70.8403ZM70.8128 37.9315C70.773 37.9978 70.7024 38.0752 70.5993 38.1294C70.5012 38.181 70.421 38.187 70.3923 38.187V36.187C69.89 36.187 69.3941 36.4087 69.0978 36.9025L70.8128 37.9315ZM70.3923 38.187H74.4633V36.187H70.3923V38.187ZM74.4633 38.187C74.4395 38.187 74.408 38.1828 74.3744 38.1711C74.3413 38.1595 74.3194 38.1451 74.3093 38.1374L75.5372 36.5586C75.2306 36.3202 74.8629 36.187 74.4633 36.187V38.187ZM74.4088 38.2055C74.3425 38.1657 74.2651 38.0951 74.2109 37.992C74.1593 37.8939 74.1533 37.8137 74.1533 37.785H76.1533C76.1533 37.2827 75.9316 36.7868 75.4378 36.4905L74.4088 38.2055ZM74.1533 37.785V49.216H76.1533V37.785H74.1533ZM74.1533 49.216C74.1533 50.3044 73.9561 51.0656 73.6502 51.5792L75.3684 52.6028C75.9211 51.675 76.1533 50.5196 76.1533 49.216H74.1533ZM73.6422 51.5929C73.3276 52.1405 72.9163 52.511 72.3993 52.742L73.2152 54.568C74.1396 54.155 74.863 53.4828 75.3764 52.5891L73.6422 51.5929ZM72.392 52.7453C71.8349 52.9997 71.1823 53.138 70.4153 53.138V55.138C71.4269 55.138 72.369 54.9543 73.2226 54.5647L72.392 52.7453ZM81.1974 53.724L80.7987 54.6411L80.8072 54.6447L80.8157 54.6483L81.1974 53.724ZM79.5644 52.689L78.8296 53.3673L78.8432 53.382L78.8573 53.3961L79.5644 52.689ZM79.1044 51.286L78.2303 50.8004L78.2087 50.8392L78.1906 50.8799L79.1044 51.286ZM79.3804 50.964L79.9617 51.7777L79.9977 51.752L80.0312 51.7233L79.3804 50.964ZM80.1624 51.125L79.3698 51.7347L79.3961 51.7689L79.4253 51.8007L80.1624 51.125ZM80.8064 51.792L80.0993 52.4991L80.1201 52.5199L80.1421 52.5394L80.8064 51.792ZM81.8874 52.459L81.4784 53.3715L81.4916 53.3775L81.5051 53.383L81.8874 52.459ZM85.4754 52.39L85.8892 53.3004L85.9005 53.2952L85.9117 53.2898L85.4754 52.39ZM86.6484 51.332L87.5059 51.8465L87.5096 51.8403L87.5132 51.8341L86.6484 51.332ZM86.6484 47.79L87.4981 47.2626V47.2626L86.6484 47.79ZM85.5444 46.686L84.9964 47.5225L85.0029 47.5267L85.0094 47.5308L85.5444 46.686ZM84.0724 45.95L84.4206 45.0126H84.4206L84.0724 45.95ZM82.4394 45.329L82.068 46.2575L82.077 46.261L82.4394 45.329ZM80.9444 44.547L80.371 45.3662L80.3803 45.3727L80.3897 45.3791L80.9444 44.547ZM79.8404 43.305L78.9566 43.7729L78.9625 43.7839L79.8404 43.305ZM79.8864 39.28L80.7547 39.7762L80.7606 39.7656L79.8864 39.28ZM81.0594 37.992L80.5294 37.144L80.5233 37.1478L80.5173 37.1517L81.0594 37.992ZM82.6464 37.348L82.8578 38.3254L82.8703 38.3227L82.8828 38.3197L82.6464 37.348ZM85.6134 37.256L85.4435 38.2415L85.4623 38.2447L85.4813 38.2472L85.6134 37.256ZM87.7984 37.992L87.1737 38.7729L87.202 38.7955L87.2319 38.816L87.7984 37.992ZM88.0744 38.912L87.1606 38.5059L87.1485 38.533L87.1381 38.5609L88.0744 38.912ZM87.8674 39.257L87.1082 38.6062V38.6062L87.8674 39.257ZM86.9244 39.211L86.3944 40.059L86.414 40.0712L86.4342 40.0826L86.9244 39.211ZM85.9124 38.774L85.5651 39.7117L85.5856 39.7193L85.6064 39.726L85.9124 38.774ZM82.6694 38.774L82.3873 37.8146L82.3794 37.817L82.6694 38.774ZM81.4274 39.602L82.1931 40.2452L82.1993 40.2378L82.2054 40.2303L81.4274 39.602ZM81.3584 42.684L80.5469 43.2683L80.5602 43.2868L80.5744 43.3047L81.3584 42.684ZM82.4624 43.581L82.003 44.4693L82.0152 44.4754L82.4624 43.581ZM83.9574 44.225L83.6092 45.1624L83.6211 45.1668L83.6331 45.1709L83.9574 44.225ZM85.5674 44.869L85.1517 45.7785L85.1671 45.7855L85.1828 45.7921L85.5674 44.869ZM87.0624 45.766L86.4249 46.5364L86.4392 46.5483L86.454 46.5596L87.0624 45.766ZM88.1664 47.169L89.0702 46.7409L88.1664 47.169ZM87.9594 52.114L88.817 52.6285L88.8218 52.6202L87.9594 52.114ZM86.2344 53.655L85.8178 52.7459L85.8105 52.7493L86.2344 53.655ZM83.7274 53.161C82.8413 53.161 82.1342 53.029 81.5792 52.7997L80.8157 54.6483C81.6713 55.0017 82.6509 55.161 83.7274 55.161V53.161ZM81.5962 52.8069C80.9615 52.531 80.5374 52.2477 80.2715 51.9819L78.8573 53.3961C79.3582 53.897 80.0227 54.3037 80.7987 54.6411L81.5962 52.8069ZM80.2992 52.0107C80.1501 51.8491 80.0686 51.7319 80.0283 51.6581C79.9867 51.5818 80.0124 51.5949 80.0124 51.677H78.0124C78.0124 52.3559 78.4336 52.9383 78.8296 53.3673L80.2992 52.0107ZM80.0124 51.677C80.0124 51.6994 80.0096 51.7132 80.0089 51.7163C80.0082 51.719 80.0098 51.7112 80.0182 51.6921L78.1906 50.8799C78.0853 51.1169 78.0124 51.386 78.0124 51.677H80.0124ZM79.9786 51.7716C79.988 51.7547 79.9927 51.7499 79.9902 51.7528C79.9874 51.7561 79.9782 51.7659 79.9617 51.7777L78.7992 50.1503C78.5496 50.3285 78.365 50.5578 78.2303 50.8004L79.9786 51.7716ZM80.0312 51.7233C80.0156 51.7366 79.9008 51.826 79.7024 51.826V49.826C79.2894 49.826 78.9599 50.0074 78.7296 50.2047L80.0312 51.7233ZM79.7024 51.826C79.551 51.826 79.4413 51.7742 79.3874 51.7392C79.341 51.709 79.3381 51.6935 79.3698 51.7347L80.9551 50.5153C80.7328 50.2264 80.3211 49.826 79.7024 49.826V51.826ZM79.4253 51.8007C79.6071 51.9991 79.8327 52.2325 80.0993 52.4991L81.5135 51.0849C81.2588 50.8301 81.0551 50.6189 80.8996 50.4493L79.4253 51.8007ZM80.1421 52.5394C80.5142 52.8701 80.9686 53.143 81.4784 53.3715L82.2965 51.5465C81.917 51.3764 81.6507 51.2045 81.4708 51.0446L80.1421 52.5394ZM81.5051 53.383C82.1157 53.6357 82.8427 53.735 83.6354 53.735V51.735C82.9868 51.735 82.5485 51.6503 82.2698 51.535L81.5051 53.383ZM83.6354 53.735C84.4582 53.735 85.2208 53.6042 85.8892 53.3004L85.0616 51.4796C84.7181 51.6358 84.254 51.735 83.6354 51.735V53.735ZM85.9117 53.2898C86.5837 52.964 87.125 52.4814 87.5059 51.8465L85.7909 50.8175C85.6199 51.1026 85.3792 51.3253 85.0392 51.4902L85.9117 53.2898ZM87.5132 51.8341C87.8995 51.1689 88.0624 50.3937 88.0624 49.561H86.0624C86.0624 50.1389 85.9494 50.5445 85.7836 50.8299L87.5132 51.8341ZM88.0624 49.561C88.0624 48.7109 87.9045 47.9175 87.4981 47.2626L85.7988 48.3174C85.9443 48.5518 86.0624 48.9391 86.0624 49.561H88.0624ZM87.4981 47.2626C87.1393 46.6846 86.6617 46.2099 86.0795 45.8412L85.0094 47.5308C85.3472 47.7448 85.6056 48.0061 85.7988 48.3174L87.4981 47.2626ZM86.0925 45.8495C85.5806 45.5142 85.0221 45.236 84.4206 45.0126L83.7242 46.8874C84.1961 47.0627 84.619 47.2752 84.9964 47.5225L86.0925 45.8495ZM84.4206 45.0126C83.8889 44.8151 83.3493 44.6099 82.8019 44.397L82.077 46.261C82.6336 46.4775 83.1827 46.6863 83.7243 46.8874L84.4206 45.0126ZM82.8108 44.4005C82.3355 44.2104 81.899 43.9815 81.4991 43.7149L80.3897 45.3791C80.9099 45.7258 81.47 46.0183 82.068 46.2575L82.8108 44.4005ZM81.5179 43.7278C81.1877 43.4966 80.9225 43.2004 80.7183 42.8261L78.9625 43.7839C79.3104 44.4216 79.7812 44.9534 80.371 45.3662L81.5179 43.7278ZM80.7242 42.8371C80.5466 42.5016 80.4264 42.016 80.4264 41.327H78.4264C78.4264 42.2326 78.5823 43.0657 78.9566 43.7729L80.7242 42.8371ZM80.4264 41.327C80.4264 40.616 80.5588 40.1189 80.7547 39.7761L79.0182 38.7839C78.6007 39.5144 78.4264 40.382 78.4264 41.327H80.4264ZM80.7606 39.7656C80.9969 39.3404 81.2798 39.0399 81.6016 38.8323L80.5173 37.1517C79.8884 37.5575 79.3893 38.1156 79.0123 38.7944L80.7606 39.7656ZM81.5894 38.84C81.9818 38.5947 82.403 38.4237 82.8578 38.3254L82.4351 36.3706C81.7552 36.5176 81.1184 36.7759 80.5294 37.144L81.5894 38.84ZM82.8828 38.3197C83.3795 38.1989 83.852 38.141 84.3024 38.141V36.141C83.6795 36.141 83.0481 36.2211 82.4101 36.3763L82.8828 38.3197ZM84.3024 38.141C84.672 38.141 85.0521 38.174 85.4435 38.2415L85.7833 36.2705C85.2854 36.1847 84.7915 36.141 84.3024 36.141V38.141ZM85.4813 38.2472C85.8914 38.3019 86.2544 38.3822 86.5737 38.4844L87.1832 36.5796C86.7358 36.4364 86.2555 36.3328 85.7456 36.2648L85.4813 38.2472ZM86.5737 38.4844C86.8805 38.5826 87.0669 38.6874 87.1737 38.7729L88.4231 37.2111C88.0699 36.9286 87.643 36.7267 87.1832 36.5796L86.5737 38.4844ZM87.2319 38.816C87.2769 38.8469 87.2613 38.8468 87.2322 38.8013C87.2167 38.7772 87.1993 38.7429 87.1861 38.6993C87.1728 38.6553 87.1664 38.6101 87.1664 38.567H89.1664C89.1664 37.9054 88.7676 37.4448 88.365 37.168L87.2319 38.816ZM87.1664 38.567C87.1664 38.5348 87.1691 38.5099 87.1715 38.4938C87.1739 38.4775 87.1764 38.4675 87.1772 38.4646C87.1784 38.4599 87.1753 38.4728 87.1606 38.5059L88.9882 39.3181C89.0745 39.1242 89.1664 38.8606 89.1664 38.567H87.1664ZM87.1381 38.5609C87.1363 38.5657 87.1301 38.5806 87.1082 38.6062L88.6267 39.9078C88.7887 39.7187 88.9206 39.5036 89.0108 39.2631L87.1381 38.5609ZM87.1082 38.6062C87.1545 38.5521 87.2213 38.4985 87.3056 38.4616C87.3877 38.4257 87.4581 38.418 87.4994 38.418V40.418C87.9167 40.418 88.3272 40.2572 88.6267 39.9078L87.1082 38.6062ZM87.4994 38.418C87.5469 38.418 87.5787 38.4238 87.5907 38.4263C87.6032 38.4289 87.6039 38.43 87.5909 38.4254C87.5629 38.4153 87.5057 38.3906 87.4147 38.3394L86.4342 40.0826C86.7037 40.2342 87.0877 40.418 87.4994 40.418V38.418ZM87.4544 38.363C87.1115 38.1486 86.6879 37.9729 86.2184 37.822L85.6064 39.726C85.9956 39.8511 86.2467 39.9667 86.3944 40.059L87.4544 38.363ZM86.2598 37.8362C85.692 37.626 85.0167 37.544 84.2794 37.544V39.544C84.8915 39.544 85.3049 39.6154 85.5651 39.7117L86.2598 37.8362ZM84.2794 37.544C83.6334 37.544 83.0017 37.6339 82.3873 37.8146L82.9516 39.7334C83.3798 39.6074 83.8214 39.544 84.2794 39.544V37.544ZM82.3794 37.817C81.688 38.0265 81.1017 38.4138 80.6495 38.9737L82.2054 40.2303C82.3972 39.9929 82.6389 39.8282 82.9594 39.731L82.3794 37.817ZM80.6617 38.9588C80.1429 39.5765 79.9444 40.3611 79.9444 41.189H81.9444C81.9444 40.6675 82.068 40.3942 82.1931 40.2452L80.6617 38.9588ZM79.9444 41.189C79.9444 41.9496 80.1163 42.6703 80.5469 43.2683L82.17 42.0997C82.0485 41.931 81.9444 41.6551 81.9444 41.189H79.9444ZM80.5744 43.3047C80.9595 43.7912 81.4409 44.1785 82.003 44.4692L82.9219 42.6928C82.5946 42.5235 82.34 42.3128 82.1425 42.0633L80.5744 43.3047ZM82.0152 44.4754C82.5108 44.7232 83.0425 44.9519 83.6092 45.1624L84.3056 43.2876C83.799 43.0994 83.3341 42.8988 82.9096 42.6866L82.0152 44.4754ZM83.6331 45.1709C84.1375 45.3439 84.6437 45.5462 85.1517 45.7785L85.9832 43.9595C85.4179 43.7011 84.8507 43.4741 84.2818 43.2791L83.6331 45.1709ZM85.1828 45.7921C85.6467 45.9854 86.0592 46.2338 86.4249 46.5364L87.7 44.9956C87.1763 44.5622 86.5921 44.2126 85.952 43.9459L85.1828 45.7921ZM86.454 46.5596C86.7743 46.8052 87.047 47.1416 87.2627 47.5971L89.0702 46.7409C88.7339 46.031 88.2706 45.4322 87.6709 44.9724L86.454 46.5596ZM87.2627 47.5971C87.4542 48.0014 87.5804 48.5923 87.5804 49.423H89.5804C89.5804 48.4137 89.4306 47.5019 89.0702 46.7409L87.2627 47.5971ZM87.5804 49.423C87.5804 50.3908 87.3959 51.0987 87.097 51.6078L88.8218 52.6202C89.351 51.7187 89.5804 50.6325 89.5804 49.423H87.5804ZM87.1019 51.5995C86.7924 52.1154 86.3716 52.4921 85.8178 52.7459L86.6511 54.5641C87.5693 54.1432 88.2985 53.4926 88.8169 52.6285L87.1019 51.5995ZM85.8105 52.7493C85.2459 53.0136 84.5597 53.161 83.7274 53.161V55.161C84.7965 55.161 85.7817 54.9711 86.6584 54.5607L85.8105 52.7493Z" fill="white"/>
</g>
<defs>
<filter id="filter0_d_101_24" x="0" y="0" width="103" height="102" filterUnits="userSpaceOnUse" color-interpolation-filters="sRGB">
<feFlood flood-opacity="0" result="BackgroundImageFix"/>
<feColorMatrix in="SourceAlpha" type="matrix" values="0 0 0 0 0 0 0 0 0 0 0 0 0 0 0 0 0 0 127 0" result="hardAlpha"/>
<feOffset dy="4"/>
<feGaussianBlur stdDeviation="2"/>
<feComposite in2="hardAlpha" operator="out"/>
<feColorMatrix type="matrix" values="0 0 0 0 0 0 0 0 0 0 0 0 0 0 0 0 0 0 0.25 0"/>
<feBlend mode="normal" in2="BackgroundImageFix" result="effect1_dropShadow_101_24"/>
<feBlend mode="normal" in="SourceGraphic" in2="effect1_dropShadow_101_24" result="shape"/>
</filter>
<linearGradient id="paint0_linear_101_24" x1="97" y1="90.5" x2="-14" y2="-46" gradientUnits="userSpaceOnUse">
<stop offset="0.102127" stop-color="#51238B"/>
<stop offset="1" stop-color="#4D4D4D"/>
</linearGradient>
</defs>
</svg>
